Coordinates
version=1
nRows=24
nColumns=24
inDegrees=yes

Units are S.I. units (second, meters, Newtons, ...)
Angles are in degrees.

endheader
time	pelvis_tilt	pelvis_list	pelvis_rotation	pelvis_tx	pelvis_ty	pelvis_tz	hip_flexion_r	hip_adduction_r	hip_rotation_r	knee_angle_r	ankle_angle_r	subtalar_angle_r	mtp_angle_r	hip_flexion_l	hip_adduction_l	hip_rotation_l	knee_angle_l	ankle_angle_l	subtalar_angle_l	mtp_angle_l	lumbar_extension	lumbar_bending	lumbar_rotation
      4.42500000	    -19.35692636	     10.58445076	     -6.81218130	     -0.85065936	     -0.03215223	     -0.29765424	     22.67275734	     -9.07148646	      2.27119536	    -64.34235949	    -31.64002797	    -20.53436754	    -14.55303755	     39.22405632	     12.33474458	      0.97359409	    -24.24778567	     19.35713845	      7.23371224	    -91.80323857	     15.96021208	     -9.59944213	      9.19219501
      4.43000000	    -19.32330107	     10.53277250	     -6.71524792	     -0.84342020	     -0.03052591	     -0.29790524	     23.77390055	     -8.66918207	      2.39141408	    -65.57220447	    -28.82698025	    -20.79218249	    -19.78913624	     38.25290592	     12.44311020	      1.16026431	    -23.58695322	     19.64787578	      7.39441012	    -91.96149284	     15.91737353	     -9.56450389	      8.98250045
      4.43500000	    -19.27215846	     10.48104375	     -6.73067754	     -0.83616965	     -0.02879765	     -0.29811984	     24.79725066	     -8.19579902	      2.86632651	    -66.49335425	    -27.37740656	    -21.12401364	    -19.68659878	     37.22115910	     12.49408715	      1.29671695	    -22.83343306	     19.87597271	      7.52294511	    -91.92178863	     15.88433416	     -9.48442410	      8.85072455
      4.44000000	    -19.21826740	     10.39266249	     -6.70275442	     -0.82893430	     -0.02708246	     -0.29844624	     25.78546791	     -7.73561316	      3.22895808	    -67.31785041	    -25.94232862	    -21.32485406	    -19.57267976	     36.16611026	     12.56486930	      1.57218689	    -22.05058814	     20.02431114	      7.47128424	    -91.87847599	     15.83447968	     -9.37415440	      8.70122850
      4.44500000	    -19.14258151	     10.32742196	     -6.63054797	     -0.82170235	     -0.02535877	     -0.29876432	     26.73942612	     -7.34627084	      3.51458284	    -68.07217627	    -24.51701790	    -21.35861186	    -19.49325765	     35.05834588	     12.68141005	      1.91578145	    -21.19989362	     20.08076400	      7.39853700	    -91.80378126	     15.76012608	     -9.31686935	      8.49935400
      4.45000000	    -19.08109022	     10.15923131	     -6.56795854	     -0.81449276	     -0.02364289	     -0.29909869	     27.66450881	     -6.85839022	      3.74577737	    -68.70578652	    -23.17216545	    -21.27905799	    -19.23774627	     33.96059784	     12.69547770	      2.28629705	    -20.37333092	     20.15744778	      7.27810613	    -91.71648629	     15.68972214	     -9.14533668	      8.31183985
      4.45500000	    -18.99207512	     10.03761627	     -6.46367265	     -0.80729959	     -0.02191842	     -0.29943827	     28.55747520	     -6.47553819	      3.91664165	    -69.27506443	    -21.84837969	    -21.03873044	    -18.77175266	     32.79606426	     12.77648212	      2.76770448	    -19.45168521	     20.09716565	      7.09756070	    -91.56431840	     15.59024551	     -9.04765592	      8.09079943
      4.46000000	    -18.92221076	      9.81490180	     -6.35538576	     -0.80014790	     -0.02023058	     -0.29982976	     29.42647277	     -6.00258347	      4.03753719	    -69.73423307	    -20.55483979	    -20.65419014	    -18.05127941	     31.66582616	     12.75436823	      3.23297403	    -18.58314312	     20.07499709	      6.91218473	    -91.40749379	     15.49137604	     -8.83841615	      7.81694730
      4.46500000	    -18.81003625	      9.56346696	     -6.19530374	     -0.79303671	     -0.01842531	     -0.30047508	     30.15672932	     -5.57831884	      4.20357803	    -69.87445259	    -20.62778787	    -20.77352454	    -12.31030024	     30.41014207	     12.78009262	      4.15621059	    -17.59596263	     19.63759263	      6.47198106	    -89.63985437	     15.32304113	     -8.60673691	      7.49488710
      4.47000000	    -18.78394058	      9.33794069	     -6.14529902	     -0.78601744	     -0.01680842	     -0.30082692	     31.04199794	     -5.10107504	      4.43668103	    -70.05189239	    -20.04509828	    -20.44183896	     -8.35836199	     29.33033655	     12.68602701	      4.56636548	    -16.68650225	     19.48870182	      6.28208440	    -89.40765278	     15.27574450	     -8.37197081	      7.34702572
      4.47500000	    -18.72278299	      9.07041484	     -6.03857321	     -0.77900535	     -0.01516181	     -0.30118968	     31.87250402	     -4.63808526	      4.47287929	    -70.21497266	    -18.87897564	    -19.86843390	     -6.75936632	     28.16890329	     12.58690953	      5.23166700	    -15.71135482	     19.25646068	      5.89216475	    -89.31019961	     15.17516309	     -8.13052042	      7.09091999
      4.48000000	    -18.72016326	      8.65176156	     -5.79700721	     -0.77209154	     -0.01354213	     -0.30178961	     32.63489045	     -4.11285664	      4.39839982	    -70.05035900	    -18.66081014	    -19.80284527	     -1.55968163	     27.12259867	     12.37459098	      5.96982128	    -14.89218579	     19.02840623	      5.71920769	    -88.59684467	     15.08197728	     -7.76359212	      6.66898236
      4.48500000	    -18.67760624	      8.37951193	     -5.75359807	     -0.76525549	     -0.01204259	     -0.30199348	     33.48094544	     -3.61284696	      4.49057651	    -70.05263553	    -17.41553446	    -19.03701307	      0.30923916	     26.05864992	     12.17865265	      6.39205131	    -14.01746624	     18.86180739	      5.57514460	    -88.43719016	     14.99321931	     -7.51219676	      6.51549369
      4.49000000	    -18.71382634	      7.88789986	     -5.47670231	     -0.75846424	     -0.01049640	     -0.30259526	     34.23864875	     -3.05288934	      4.29861394	    -69.68238692	    -17.07659756	    -18.94946907	      4.89540390	     25.10922663	     11.85855382	      7.05327979	    -13.28308594	     18.63239404	      5.51028060	    -87.79129811	     14.92075637	     -7.08179000	      6.01073191
      4.49500000	    -18.71876792	      7.49873368	     -5.27435089	     -0.75175532	     -0.00909925	     -0.30286110	     35.04481975	     -2.53901804	      4.12708238	    -69.48243878	    -15.72519643	    -18.16751162	      5.83349256	     24.21711412	     11.55105874	      7.28609001	    -12.64809325	     18.60916300	      5.80287695	    -87.72499195	     14.83034392	     -6.77680144	      5.65490210
      4.50000000	    -18.72985497	      7.08435380	     -5.06571033	     -0.74506087	     -0.00768382	     -0.30341083	     35.79298173	     -2.05295593	      3.98680203	    -68.97988473	    -15.30317200	    -18.04140959	      9.82763100	     23.24520689	     11.26540363	      8.06450091	    -11.86203742	     18.28331815	      5.50556275	    -87.17602006	     14.74494207	     -6.41012223	      5.28833390
      4.50500000	    -18.74709714	      6.71605651	     -4.84761651	     -0.73838951	     -0.00643095	     -0.30368829	     36.56818549	     -1.58539928	      3.80858465	    -68.59051810	    -14.07584991	    -17.33350867	     10.62478118	     22.42014259	     10.95787054	      8.18870400	    -11.29669349	     18.26824109	      5.90401331	    -87.09661742	     14.67074737	     -6.13235041	      4.94752419
      4.51000000	    -18.77019350	      6.34364119	     -4.61881574	     -0.73175326	     -0.00519833	     -0.30419019	     37.29699690	     -1.15957322	      3.65720460	    -67.94617872	    -13.59443681	    -17.21159132	     13.73273084	     21.53545178	     10.68320173	      8.79851322	    -10.61010167	     17.98409189	      5.77726495	    -86.58691099	     14.59537522	     -5.82650856	      4.58476626
      4.51500000	    -18.78258055	      6.01951309	     -4.36521520	     -0.72515327	     -0.00411563	     -0.30453284	     38.03065240	     -0.78415514	      3.46015111	    -67.38907280	    -12.57864897	    -16.67260977	     14.31196857	     20.75846689	     10.42377483	      8.91699573	    -10.11082434	     17.95110060	      6.17516818	    -86.51939966	     14.50984913	     -5.60487273	      4.24076773
      4.52000000	    -18.73249434	      5.74828750	     -4.15880540	     -0.71851992	     -0.00303488	     -0.30493356	     38.66533912	     -0.45568420	      3.36490069	    -66.67859525	    -11.90652687	    -16.40356008	     15.89572078	     19.83835170	     10.22424018	      9.38787095	     -9.45968118	     17.70059204	      6.11006658	    -86.28017176	     14.36737588	     -5.41616024	      3.96211823
      4.52500000	    -18.80846956	      5.43847897	     -3.84005935	     -0.71193874	     -0.00220498	     -0.30534147	     39.40488448	     -0.14706169	      3.11358044	    -65.93373978	    -11.17920419	    -16.18297235	     16.27250601	     19.18554170	      9.98819177	      9.54220980	     -9.05532531	     17.69519498	      6.50104415	    -86.21793694	     14.34766515	     -5.22416419	      3.56576100
      4.53000000	    -18.77971151	      5.20706700	     -3.47976533	     -0.70539942	     -0.00135167	     -0.30582556	     40.01098795	      0.04000084	      2.91331606	    -65.11698891	    -10.52293369	    -15.99000335	     16.83561285	     18.41424573	      9.85433193	      9.80595233	     -8.61051461	     17.55656932	      6.79461031	    -86.14691050	     14.20463515	     -5.13124616	      3.16601548
      4.53500000	    -18.74676992	      4.98715568	     -3.14572647	     -0.69878124	     -0.00059765	     -0.30632582	     40.57928287	      0.21241974	      2.72729387	    -64.19870861	    -10.03762557	    -15.96910244	     17.46726981	     17.61426575	      9.72580054	     10.13034333	     -8.12487852	     17.41148031	      6.93685824	    -86.03592172	     14.07425615	     -5.03517998	      2.77364148
      4.54000000	    -18.78346992	      4.78570138	     -2.84981091	     -0.69217487	     -0.00002171	     -0.30666323	     41.19116562	      0.43258156	      2.63538824	    -63.19834915	     -9.58683028	    -16.04421239	     17.77918405	     16.93833968	      9.58401383	     10.36794309	     -7.72681586	     17.33432054	      7.14196857	    -85.96554051	     14.02901419	     -4.96096730	      2.49233435
